<svg width="24" height="24" viewBox="0 0 24 24" fill="none" xmlns="http://www.w3.org/2000/svg">
<path d="M16.2377 16.3715L14.0434 16.8103L16.9988 21.0823C17.5611 20.7806 18.0822 20.4172 18.5759 20.0126L16.3062 17.592L18.8091 17.0777L11.9382 11.9417L16.2377 16.3715ZM17.7387 11.1271L19.1451 10.4681L16.4303 10.2617L16.549 11.4974L17.7065 10.7932L17.7387 11.1271ZM12.9243 7.79248L14.2319 9.04254L13.8575 7.99339L12.9243 7.79248Z" fill="#EAEEF6"/>
<path d="M12 1.13477C5.93828 1.13477 1.02856 6.05134 1.02856 12.1062C1.02856 17.4205 4.80685 21.8502 9.81942 22.8651C9.53142 21.7062 8.90056 18.8605 9.38742 17.4342L7.71428 17.3039C7.71428 17.3039 9.94971 14.0331 9.68914 12.2776C9.43542 10.5291 7.75542 9.43877 7.75542 9.43877C7.75542 9.43877 6.82285 8.70505 7.72114 7.61477L7.91314 7.77934L8.54399 7.42277L8.24914 8.06734L9.51085 8.69819C9.51085 8.69819 8.58514 6.58619 8.48228 6.07191C8.48228 6.07191 8.45485 5.31077 8.92799 4.90619L10.0526 5.21477L9.25028 4.47419L9.79199 3.95991L12.1714 6.63419C12.1714 6.63419 13.1451 7.40219 14.1806 7.44334L16.4091 9.64448L20.2971 10.2411C20.2971 10.2411 18.5417 11.6811 17.664 12.0376L22.0663 16.4673C22.6491 15.1302 22.9714 13.6559 22.9714 12.1062C22.9714 6.05134 18.0549 1.13477 12 1.13477Z" fill="#EAEEF6"/>
</svg>
