<svg width="91" height="91" viewBox="0 0 91 91" fill="none" xmlns="http://www.w3.org/2000/svg">
<path d="M61.5681 62.075L53.2481 63.739L64.4541 79.937C66.5861 78.793 68.5621 77.415 70.4341 75.881L61.8281 66.703L71.3181 64.753L45.2661 45.279L61.5681 62.075ZM67.2595 42.1902L72.5921 39.6916L62.2987 38.909L62.7485 43.5942L67.1373 40.924L67.2595 42.1902ZM49.0049 29.5464L53.9631 34.2862L52.5435 30.3082L49.0049 29.5464Z" fill="#6A8BF8"/>
<path d="M45.4999 4.30298C22.5159 4.30298 3.8999 22.945 3.8999 45.903C3.8999 66.053 18.2259 82.849 37.2319 86.697C36.1399 82.303 33.7479 71.513 35.5939 66.105L29.2499 65.611C29.2499 65.611 37.7259 53.209 36.7379 46.553C35.7759 39.923 29.4059 35.789 29.4059 35.789C29.4059 35.789 25.8699 33.007 29.2759 28.873L30.0039 29.497L32.3959 28.145L31.2779 30.589L36.0619 32.981C36.0619 32.981 32.5519 24.973 32.1619 23.023C32.1619 23.023 32.0579 20.137 33.8519 18.603L38.1159 19.773L35.0739 16.965L37.1279 15.015L46.1499 25.155C46.1499 25.155 49.8419 28.067 53.7679 28.223L62.2179 36.569L76.9599 38.831C76.9599 38.831 70.3039 44.291 66.9759 45.643L83.6679 62.439C85.8779 57.369 87.0999 51.779 87.0999 45.903C87.0999 22.945 68.4579 4.30298 45.4999 4.30298Z" fill="#6A8BF8"/>
</svg>
