<svg width="30" height="30" viewBox="0 0 30 30" fill="none" xmlns="http://www.w3.org/2000/svg">
<path d="M5.62501 21.5874C5.44751 21.5874 5.29918 21.527 5.18001 21.4062C5.06084 21.2854 5.00084 21.1366 5.00001 20.9599C4.99918 20.7833 5.05918 20.6349 5.18001 20.5149C5.30084 20.3949 5.44918 20.3354 5.62501 20.3362H24.375C24.5525 20.3362 24.7008 20.3962 24.82 20.5162C24.94 20.6362 25 20.7849 25 20.9624C25 21.1399 24.94 21.2883 24.82 21.4074C24.7 21.5266 24.5517 21.5862 24.375 21.5862L5.62501 21.5874ZM5.62501 15.6249C5.44751 15.6249 5.29918 15.5649 5.18001 15.4449C5.06084 15.3249 5.00084 15.1762 5.00001 14.9987C4.99918 14.8212 5.05918 14.6729 5.18001 14.5537C5.30084 14.4345 5.44918 14.3749 5.62501 14.3749H24.375C24.5525 14.3749 24.7008 14.4349 24.82 14.5549C24.9392 14.6749 24.9992 14.8237 25 15.0012C25.0008 15.1787 24.9408 15.327 24.82 15.4462C24.6992 15.5654 24.5508 15.6249 24.375 15.6249H5.62501ZM5.62501 9.66245C5.44751 9.66245 5.29918 9.60286 5.18001 9.4837C5.06001 9.3637 5.00001 9.21495 5.00001 9.03745C5.00001 8.85995 5.06001 8.71161 5.18001 8.59245C5.30001 8.47328 5.44834 8.4137 5.62501 8.4137H24.375C24.5525 8.4137 24.7008 8.4737 24.82 8.5937C24.9392 8.7137 24.9992 8.86161 25 9.03745C25.0008 9.21328 24.9408 9.36161 24.82 9.48245C24.6992 9.60328 24.5508 9.66328 24.375 9.66245H5.62501Z" fill="#8A8A8A"/>
</svg>
